<svg width="35" height="229" viewBox="0 0 35 229" fill="none" xmlns="http://www.w3.org/2000/svg">
<rect x="0.332031" width="34" height="229" rx="17" fill="#EFBA4C"/>
<path fill-rule="evenodd" clip-rule="evenodd" d="M0.331055 54.3906V39.0378L4.70481 40.8096C8.36613 42.2927 10.1319 46.4632 8.64869 50.1245C7.29882 53.4567 3.72307 55.2188 0.331055 54.3906ZM0.331055 83.8572V65.5467C0.739398 65.4916 1.15621 65.4631 1.57967 65.4631C6.68218 65.4631 10.8186 69.5995 10.8186 74.702C10.8186 79.8045 6.68218 83.9409 1.57967 83.9409C1.15621 83.9409 0.739398 83.9124 0.331055 83.8572ZM34.3311 62.4599V77.8114L29.9652 76.0428C26.3039 74.5596 24.5382 70.3892 26.0214 66.7279C27.3702 63.3983 30.9414 61.6363 34.3311 62.4599ZM34.3311 26.7914V45.1249C33.951 45.1725 33.5638 45.1971 33.1708 45.1971C28.0683 45.1971 23.9319 41.0607 23.9319 35.9582C23.9319 30.8556 28.0683 26.7192 33.1708 26.7192C33.5638 26.7192 33.951 26.7438 34.3311 26.7914Z" fill="#E07F3A"/>
<path fill-rule="evenodd" clip-rule="evenodd" d="M0.321289 116.202V100.847L4.70481 102.623C8.36613 104.106 10.1319 108.277 8.64869 111.938C7.29753 115.273 3.71621 117.036 0.321289 116.202ZM0.321289 145.669V127.362C0.732752 127.305 1.15283 127.277 1.57967 127.277C6.68218 127.277 10.8186 131.413 10.8186 136.515C10.8186 141.618 6.68218 145.754 1.57967 145.754C1.15283 145.754 0.732752 145.725 0.321289 145.669ZM34.3213 124.271V139.621L29.9652 137.856C26.3039 136.373 24.5382 132.203 26.0214 128.541C27.3689 125.215 30.9345 123.453 34.3213 124.271ZM34.3213 88.6037V106.94C33.9444 106.986 33.5604 107.011 33.1708 107.011C28.0683 107.011 23.9319 102.874 23.9319 97.7716C23.9319 92.6691 28.0683 88.5327 33.1708 88.5327C33.5604 88.5327 33.9444 88.5568 34.3213 88.6037Z" fill="#E07F3A"/>
<path fill-rule="evenodd" clip-rule="evenodd" d="M34.332 188.69V204.124L28.2591 201.664C24.5977 200.181 22.832 196.01 24.3152 192.349C25.7984 188.688 29.9688 186.922 33.6301 188.405L34.332 188.69ZM34.332 159.013V176.53C33.4063 176.842 32.4149 177.011 31.3842 177.011C26.2817 177.011 22.1453 172.874 22.1453 167.772C22.1453 162.669 26.2817 158.533 31.3842 158.533C32.4149 158.533 33.4063 158.701 34.332 159.013ZM0.332031 180.215V165.351L2.99863 166.431C6.65996 167.914 8.4257 172.084 6.94252 175.746C5.81856 178.52 3.1514 180.206 0.332031 180.215ZM0.332031 215.739V197.292C5.1837 197.571 9.03199 201.594 9.03199 206.515C9.03199 211.437 5.1837 215.46 0.332031 215.739Z" fill="#E07F3A"/>
</svg>
