<svg width="34" height="100" viewBox="0 0 34 100" fill="none" xmlns="http://www.w3.org/2000/svg">
<rect width="34" height="100" rx="17" fill="#EFBA4C"/>
<path fill-rule="evenodd" clip-rule="evenodd" d="M0.000976562 53.7497V38.2132L5.35865 40.3836C9.04418 41.8765 10.8216 46.0746 9.3286 49.7601C7.84222 53.4293 3.67466 55.2073 0.000976562 53.7497ZM0.000976562 83.5354V65.4647C0.7099 65.2918 1.45067 65.2001 2.21285 65.2001C7.34909 65.2001 11.5128 69.3638 11.5128 74.5001C11.5128 79.6363 7.34909 83.8001 2.21285 83.8001C1.45067 83.8001 0.7099 83.7084 0.000976562 83.5354ZM34.001 61.9928V77.1521L30.7861 75.8498C27.1006 74.3568 25.3231 70.1588 26.8161 66.4732C28.0178 63.5067 30.9721 61.7764 34.001 61.9928ZM34.001 26.2001V44.8001C28.8702 44.7936 24.7128 40.6324 24.7128 35.5001C24.7128 30.3678 28.8702 26.2065 34.001 26.2001Z" fill="#E07F3A"/>
</svg>
