<svg width="35" height="184" viewBox="0 0 35 184" fill="none" xmlns="http://www.w3.org/2000/svg">
<rect x="0.333008" width="34" height="184" rx="17" fill="#EFBA4C"/>
<path fill-rule="evenodd" clip-rule="evenodd" d="M0.332031 54.0673V38.6327L5.70578 40.8096C9.36711 42.2927 11.1328 46.4632 9.64966 50.1245C8.16649 53.7858 3.99604 55.5516 0.334718 54.0684L0.332031 54.0673ZM0.332031 83.6653V65.7386C1.05183 65.5586 1.80508 65.4631 2.58065 65.4631C7.68316 65.4631 11.8196 69.5995 11.8196 74.702C11.8196 79.8045 7.68316 83.9409 2.58065 83.9409C1.80508 83.9409 1.05183 83.8453 0.332031 83.6653ZM34.332 62.2912V77.4063L30.9662 76.0428C27.3049 74.5596 25.5391 70.3892 27.0223 66.7279C28.2389 63.7247 31.2634 61.9969 34.332 62.2912ZM34.332 26.7206V45.1957C34.2787 45.1966 34.2253 45.1971 34.1718 45.1971C29.0693 45.1971 24.9329 41.0607 24.9329 35.9581C24.9329 30.8556 29.0693 26.7192 34.1718 26.7192C34.2253 26.7192 34.2787 26.7197 34.332 26.7206Z" fill="#E07F3A"/>
<path fill-rule="evenodd" clip-rule="evenodd" d="M0.332031 115.881V100.446L5.70578 102.623C9.36711 104.106 11.1328 108.277 9.64966 111.938C8.16649 115.599 3.99604 117.365 0.334718 115.882L0.332031 115.881ZM0.332031 145.479V127.552C1.05183 127.372 1.80508 127.277 2.58065 127.277C7.68316 127.277 11.8196 131.413 11.8196 136.515C11.8196 141.618 7.68316 145.754 2.58065 145.754C1.80508 145.754 1.05183 145.659 0.332031 145.479ZM34.332 124.105V139.22L30.9662 137.856C27.3049 136.373 25.5391 132.203 27.0223 128.541C28.2389 125.538 31.2634 123.81 34.332 124.105ZM34.332 88.5341V107.009C34.2787 107.01 34.2253 107.011 34.1718 107.011C29.0693 107.011 24.9329 102.874 24.9329 97.7716C24.9329 92.6691 29.0693 88.5327 34.1718 88.5327C34.2253 88.5327 34.2787 88.5332 34.332 88.5341Z" fill="#E07F3A"/>
</svg>
